<svg version="1.2" xmlns="http://www.w3.org/2000/svg" xmlns:xlink="http://www.w3.org/1999/xlink" overflow="visible" preserveAspectRatio="none" viewBox="0 0 41 41" width="20" height="20"><g><path xmlns:default="http://www.w3.org/2000/svg" d="M35.6,41.5c-0.8,0-1.6-0.3-2.1-0.9L20.7,27.8L8,40.6c-1.1,1.1-3.1,1.1-4.2,0l-2.8-2.8c-1.2-1.2-1.2-3.1,0-4.3l12.7-12.8  L0.9,7.9C0.3,7.4,0,6.6,0,5.8s0.3-1.6,0.9-2.1l2.8-2.8c1.1-1.1,3.1-1.1,4.2,0l12.7,12.8L33.5,0.9c1.1-1.1,3.1-1.1,4.2,0l2.8,2.8  c0.6,0.6,0.9,1.3,0.9,2.1s-0.3,1.6-0.9,2.1L27.8,20.7l12.7,12.8c1.2,1.2,1.2,3.1,0,4.3l-2.8,2.8C37.1,41.1,36.4,41.5,35.6,41.5z   M20.7,25l14.2,14.2c0.4,0.4,1,0.4,1.4,0l2.8-2.8c0.4-0.4,0.4-1,0-1.4L25,20.7L39.1,6.5c0.2-0.2,0.3-0.4,0.3-0.7s-0.1-0.5-0.3-0.7  l-2.8-2.8c-0.4-0.4-1-0.4-1.4,0L20.7,16.5L6.5,2.3c-0.4-0.4-1-0.4-1.4,0L2.3,5.1C2.1,5.3,2,5.6,2,5.8s0.1,0.5,0.3,0.7l14.2,14.2  L2.3,34.9c-0.4,0.4-0.4,1,0,1.4l2.8,2.8c0.4,0.4,1,0.4,1.4,0L20.7,25z" style="fill: rgb(196, 52, 224);" vector-effect="non-scaling-stroke"/></g></svg>