<svg version="1.2" xmlns="http://www.w3.org/2000/svg" xmlns:xlink="http://www.w3.org/1999/xlink" overflow="visible" preserveAspectRatio="none" viewBox="0 0 24 24" width="16" height="16"><g><path xmlns:default="http://www.w3.org/2000/svg" id="question-circle" d="M13.24,17.24c-0.06,0.06-0.15,0.09-0.24,0.09h-2c-0.18,0.01-0.32-0.13-0.33-0.31c0-0.01,0-0.01,0-0.02  v-2c-0.01-0.18,0.13-0.32,0.31-0.33c0.01,0,0.01,0,0.02,0h2c0.18-0.01,0.32,0.13,0.33,0.31c0,0.01,0,0.01,0,0.02v2  C13.33,17.09,13.3,17.18,13.24,17.24z M16,10c0,0.29-0.04,0.57-0.13,0.84c-0.07,0.22-0.17,0.43-0.29,0.63  c-0.13,0.19-0.28,0.36-0.46,0.5c-0.15,0.13-0.31,0.25-0.48,0.36l-0.51,0.3c-0.23,0.13-0.42,0.31-0.57,0.52  c-0.12,0.15-0.2,0.33-0.22,0.52c0.01,0.18-0.13,0.32-0.31,0.33c-0.01,0-0.02,0-0.03,0h-2c-0.18,0.01-0.32-0.13-0.33-0.31  c0-0.01,0-0.01,0-0.02v-0.38c0.01-0.48,0.21-0.94,0.54-1.29c0.33-0.38,0.74-0.69,1.2-0.9c0.27-0.11,0.51-0.27,0.71-0.47  c0.15-0.18,0.22-0.4,0.21-0.63c-0.02-0.26-0.17-0.49-0.39-0.61c-0.55-0.35-1.24-0.35-1.79,0c-0.34,0.29-0.64,0.63-0.9,1  c-0.06,0.08-0.16,0.12-0.26,0.12c-0.07,0.01-0.14-0.02-0.2-0.06l-1.37-1c-0.14-0.09-0.19-0.27-0.1-0.41  c0.01-0.01,0.01-0.02,0.02-0.03C9.11,7.6,10.6,6.74,12.2,6.79c1.25-0.02,2.44,0.54,3.22,1.51C15.8,8.79,16,9.38,16,10L16,10z   M18.93,8c-0.7-1.21-1.71-2.22-2.93-2.92C14.79,4.37,13.41,3.99,12,4c-1.41-0.01-2.79,0.37-4,1.08C6.79,5.78,5.78,6.79,5.08,8  C4.37,9.21,3.99,10.59,4,12c-0.01,1.41,0.36,2.79,1.07,4c0.7,1.21,1.71,2.22,2.93,2.92c1.21,0.71,2.59,1.09,4,1.08  c1.41,0.01,2.79-0.36,4-1.07c1.21-0.7,2.22-1.71,2.92-2.93c0.71-1.21,1.09-2.59,1.08-4c0.01-1.41-0.37-2.79-1.08-4H18.93z" style="fill: rgb(163, 163, 163);" vector-effect="non-scaling-stroke"/></g></svg>