<?xml version="1.0" standalone="no"?>
<!DOCTYPE svg PUBLIC "-//W3C//DTD SVG 20010904//EN"
 "http://www.w3.org/TR/2001/REC-SVG-20010904/DTD/svg10.dtd">
<svg version="1.0" xmlns="http://www.w3.org/2000/svg"
 width="1268.000000pt" height="1280.000000pt" viewBox="0 0 1268.000000 1280.000000"
 preserveAspectRatio="xMidYMid meet">
<metadata>
Created by potrace 1.15, written by Peter Selinger 2001-2017
</metadata>
<g transform="translate(0.000000,1280.000000) scale(0.100000,-0.100000)"
fill="#000000" stroke="none">
<path d="M1095 12784 c-27 -9 -73 -17 -101 -18 -50 -1 -84 -17 -84 -40 0 -6
-20 -22 -45 -35 -66 -35 -161 -125 -198 -189 -32 -54 -34 -56 -117 -84 -111
-37 -252 -66 -377 -76 -109 -10 -145 -24 -165 -68 -14 -31 -1 -72 27 -88 11
-6 32 -21 47 -33 15 -12 83 -43 150 -69 336 -129 459 -188 540 -262 22 -20 65
-74 95 -119 55 -85 90 -115 213 -186 44 -26 60 -43 82 -87 59 -117 93 -331 85
-530 -14 -318 -98 -624 -330 -1200 -63 -157 -127 -324 -141 -372 -55 -180
-107 -459 -138 -743 -21 -191 -18 -805 5 -975 48 -359 122 -621 245 -867 27
-54 82 -197 122 -317 110 -336 177 -479 274 -583 49 -52 53 -55 76 -43 16 8
25 9 28 2 9 -28 108 -184 140 -221 32 -37 41 -42 65 -36 19 5 27 14 27 29 0
11 4 27 9 35 11 17 14 6 96 -313 85 -334 134 -477 222 -651 82 -163 235 -373
293 -402 37 -18 53 1 47 54 -2 23 -1 40 4 37 14 -8 115 -145 215 -288 175
-253 302 -360 426 -355 55 2 60 0 156 -64 182 -121 337 -186 482 -203 l58 -6
7 32 7 32 202 -9 c330 -13 649 -10 736 9 116 25 130 33 130 67 0 23 -6 31 -27
38 -25 9 -21 12 72 62 113 60 189 111 272 179 75 62 104 82 120 82 10 0 13
-31 13 -129 0 -298 77 -507 314 -855 129 -189 193 -305 216 -388 7 -29 11 -86
8 -150 -3 -88 -7 -112 -32 -161 -49 -100 -175 -176 -408 -242 -404 -117 -933
-174 -1984 -215 -289 -11 -331 -20 -442 -94 -118 -78 -187 -168 -355 -463 -64
-111 -135 -231 -158 -265 -106 -156 -214 -235 -447 -328 -160 -63 -202 -106
-202 -209 0 -61 2 -66 38 -100 43 -41 87 -57 194 -71 90 -11 246 2 322 28 41
14 68 17 108 11 61 -8 144 3 185 25 74 39 131 118 189 263 61 150 88 186 137
175 25 -5 22 -21 -25 -130 -52 -121 -60 -183 -29 -216 30 -32 60 -36 155 -25
97 12 167 41 205 84 27 31 71 129 71 159 0 7 14 60 31 117 49 167 146 324 218
352 21 9 111 34 202 57 90 24 223 60 294 82 385 115 796 172 1390 193 196 7
531 -8 655 -29 145 -24 192 -27 270 -16 204 29 334 161 334 340 1 96 -22 161
-90 262 -69 101 -85 132 -127 255 -41 117 -79 280 -104 443 -25 163 -24 603 0
745 10 54 19 101 22 103 2 2 128 -21 279 -51 l276 -55 168 -80 c191 -91 227
-104 482 -167 280 -68 339 -104 458 -282 162 -242 323 -353 732 -509 96 -36
206 -82 243 -102 185 -96 834 -779 1128 -1187 151 -209 202 -290 351 -560 185
-333 212 -352 513 -365 189 -9 241 -17 537 -90 328 -80 486 -89 596 -34 52 26
70 46 198 212 154 200 189 239 311 352 67 62 83 82 89 114 10 54 -14 100 -68
127 -39 20 -53 21 -177 16 -179 -6 -257 -32 -435 -140 -157 -96 -201 -107
-228 -57 -46 82 -243 114 -437 70 -89 -20 -106 -22 -144 -10 -62 18 -109 73
-142 166 -71 199 -183 396 -324 568 -155 189 -329 354 -781 741 -532 456 -707
642 -895 955 -100 166 -150 233 -237 319 -140 139 -268 198 -505 231 -225 32
-361 84 -509 193 -72 53 -144 117 -350 312 -88 83 -188 175 -223 206 l-65 57
45 22 c24 13 79 58 121 101 42 44 87 83 100 88 14 5 57 3 108 -4 47 -7 146
-18 220 -25 217 -18 389 -40 480 -61 141 -33 244 -89 276 -150 12 -24 21 -30
42 -27 21 2 30 11 39 38 18 53 15 233 -6 312 -9 38 -15 68 -12 68 3 0 22 -16
43 -37 36 -35 38 -35 61 -20 19 12 23 22 20 44 -10 62 -46 152 -87 222 l-44
74 83 83 c45 45 97 105 116 133 l33 51 27 -26 c33 -32 73 -105 99 -180 24 -70
36 -84 67 -84 18 0 28 9 40 38 8 20 16 38 18 40 1 2 33 -19 69 -47 200 -149
441 -228 767 -252 122 -9 158 -15 174 -29 45 -40 176 -121 280 -173 204 -102
370 -148 535 -150 124 0 156 7 164 39 5 20 -1 34 -29 66 -132 145 -181 306
-186 608 l-3 125 30 3 c99 8 115 13 124 38 7 18 6 31 -5 48 -15 23 -15 23 35
30 40 5 53 12 61 30 10 21 4 32 -50 96 -34 41 -80 113 -106 165 -42 87 -58
138 -170 542 -19 68 -48 150 -65 184 -35 72 -35 72 -12 65 12 -4 26 1 37 14
18 19 16 23 -50 137 -88 154 -230 365 -320 478 -177 220 -422 428 -623 529
-28 14 -52 31 -52 36 0 10 41 31 83 44 11 4 17 16 17 35 0 29 -2 30 -92 51
-236 55 -520 65 -710 24 -22 -4 -26 -2 -22 13 3 11 -3 26 -13 35 -16 14 -25
15 -83 2 -36 -8 -110 -15 -165 -15 -128 -1 -208 23 -367 113 -132 75 -200 102
-278 113 -47 6 -63 15 -108 56 -61 56 -112 74 -235 85 -73 6 -77 8 -62 24 18
20 19 39 2 61 -12 16 -19 15 -97 -2 -105 -23 -246 -24 -505 -4 -305 23 -432
46 -709 127 -428 125 -459 132 -601 132 -91 -1 -125 -5 -195 -28 -238 -75
-259 -78 -505 -85 -252 -7 -268 -11 -370 -81 l-45 -31 -237 -3 c-246 -2 -306
-10 -433 -54 -100 -35 -253 -123 -289 -166 -20 -24 -32 -19 -21 10 11 29 7 39
-20 54 -30 16 -163 -102 -585 -520 -401 -397 -476 -465 -556 -505 -151 -77
-329 -72 -493 13 -69 36 -168 119 -206 173 l-20 27 37 12 c50 16 57 24 49 53
-5 21 -13 25 -58 30 -104 13 -206 87 -271 197 -66 114 -103 343 -94 594 12
346 68 595 317 1401 238 771 316 1097 350 1460 39 425 -32 825 -201 1127 l-49
87 25 37 c46 68 28 105 -53 108 -40 1 -65 12 -147 61 -252 153 -298 173 -414
180 -54 4 -91 0 -126 -11z"/>
</g>
</svg>
